<mxfile host="app.diagrams.net" modified="2023-06-21T07:20:14.777Z" agent="Mozilla/5.0 (Windows NT 10.0; Win64; x64) AppleWebKit/537.36 (KHTML, like Gecko) Chrome/116.0.0.0 Safari/537.36" version="21.3.8" etag="Mj6ESR5G8yB5ZPK8C-48" type="github">
  <diagram name="第 1 页" id="I5FgWsDHJZ8hdMLuHsBY">
    <mxGraphModel>
      <root>
        <mxCell id="0" />
        <mxCell id="1" parent="0" />
      </root>
    </mxGraphModel>
  </diagram>
</mxfile>
